<?xml version="1.0" encoding="UTF-8" standalone="no"?>
<!-- Created with Inkscape (http://www.inkscape.org/) -->

<svg
   xmlns:dc="http://purl.org/dc/elements/1.1/"
   xmlns:cc="http://creativecommons.org/ns#"
   xmlns:rdf="http://www.w3.org/1999/02/22-rdf-syntax-ns#"
   xmlns:svg="http://www.w3.org/2000/svg"
   xmlns="http://www.w3.org/2000/svg"
   xmlns:sodipodi="http://sodipodi.sourceforge.net/DTD/sodipodi-0.dtd"
   xmlns:inkscape="http://www.inkscape.org/namespaces/inkscape"
   width="1024"
   height="768"
   id="svg5248"
   version="1.1"
   inkscape:version="0.91 r13725"
   viewBox="0 0 1024 768"
   sodipodi:docname="wireframesAR.0011svg.svg"
   inkscape:export-filename="/home/erre/Documentos/wFAR0011.png"
   inkscape:export-xdpi="300"
   inkscape:export-ydpi="300">
  <defs
     id="defs5250" />
  <sodipodi:namedview
     id="base"
     pagecolor="#ffffff"
     bordercolor="#666666"
     borderopacity="1.0"
     inkscape:pageopacity="0.0"
     inkscape:pageshadow="2"
     inkscape:zoom="0.60986328"
     inkscape:cx="352.34265"
     inkscape:cy="529.36783"
     inkscape:current-layer="layer2"
     inkscape:document-units="px"
     showgrid="true"
     showguides="true"
     inkscape:guide-bbox="true"
     inkscape:window-width="1920"
     inkscape:window-height="978"
     inkscape:window-x="0"
     inkscape:window-y="0"
     inkscape:window-maximized="1">
    <inkscape:grid
       type="xygrid"
       id="grid5798" />
    <sodipodi:guide
       position="520,60"
       orientation="1,0"
       id="guide5933" />
    <sodipodi:guide
       position="660,600"
       orientation="0,1"
       id="guide6372" />
    <sodipodi:guide
       position="720,350"
       orientation="0,1"
       id="guide6833" />
  </sodipodi:namedview>
  <metadata
     id="metadata5253">
    <rdf:RDF>
      <cc:Work
         rdf:about="">
        <dc:format>image/svg+xml</dc:format>
        <dc:type
           rdf:resource="http://purl.org/dc/dcmitype/StillImage" />
        <dc:title></dc:title>
      </cc:Work>
    </rdf:RDF>
  </metadata>
  <g
     id="layer1"
     inkscape:label="Ventana Estructura"
     inkscape:groupmode="layer"
     sodipodi:insensitive="true">
    <g
       id="g5861">
      <rect
         y="0.50515586"
         x="0.0051558823"
         height="767.48969"
         width="1039.9897"
         id="rect5804"
         style="fill:#ffffff;fill-opacity:1;stroke:#000000;stroke-width:2.11031175;stroke-linecap:round;stroke-linejoin:round;stroke-miterlimit:1.79999995;stroke-dasharray:none;stroke-dashoffset:24.99999809;stroke-opacity:1" />
      <path
         inkscape:connector-curvature="0"
         id="path5821"
         d="m 0,48 1040,0"
         style="fill:none;fill-rule:evenodd;stroke:#000000;stroke-width:2.0999999;stroke-linecap:butt;stroke-linejoin:miter;stroke-miterlimit:4;stroke-dasharray:none;stroke-opacity:1" />
    </g>
    <g
       id="g5867">
      <g
         id="g5856">
        <circle
           style="fill:#ffffff;fill-opacity:1;stroke:#000000;stroke-width:1.49728096;stroke-linecap:round;stroke-miterlimit:4;stroke-dasharray:none;stroke-dashoffset:24.99999809;stroke-opacity:1"
           id="path5823"
           cx="22.393505"
           cy="22.393505"
           r="10.694864" />
        <circle
           style="fill:#000000;fill-opacity:1;stroke:#000000;stroke-width:1.49728096;stroke-linecap:round;stroke-miterlimit:4;stroke-dasharray:none;stroke-dashoffset:24.99999809;stroke-opacity:1"
           id="path5823-0"
           cx="49.843655"
           cy="22.393505"
           r="10.694864" />
        <circle
           style="fill:#ffffff;fill-opacity:1;stroke:#000000;stroke-width:1.49728096;stroke-linecap:round;stroke-miterlimit:4;stroke-dasharray:none;stroke-dashoffset:24.99999809;stroke-opacity:1"
           id="path5823-6"
           cx="76.224319"
           cy="23.106495"
           r="10.694864" />
      </g>
      <rect
         y="16.669617"
         x="134.18433"
         height="15.489193"
         width="861.14606"
         id="rect5865"
         style="fill:#000000;fill-opacity:1;stroke:#000000;stroke-width:8.45395279;stroke-linecap:round;stroke-linejoin:round;stroke-miterlimit:19.39999962;stroke-dasharray:none;stroke-dashoffset:24.99999809;stroke-opacity:1" />
    </g>
    <rect
       style="fill:#ffffff;fill-opacity:1;stroke:#ffffff;stroke-width:4;stroke-linecap:round;stroke-linejoin:round;stroke-miterlimit:4;stroke-dasharray:none;stroke-dashoffset:24.99999809;stroke-opacity:1"
       id="rect5937"
       width="520"
       height="40"
       x="0"
       y="-62" />
    <flowRoot
       xml:space="preserve"
       id="flowRoot5994"
       style="font-style:normal;font-weight:normal;font-size:40px;line-height:125%;font-family:sans-serif;letter-spacing:0px;word-spacing:0px;fill:#000000;fill-opacity:1;stroke:none;stroke-width:1px;stroke-linecap:butt;stroke-linejoin:miter;stroke-opacity:1"
       transform="translate(-42.837772,164.9888)"><flowRegion
         id="flowRegion5996"><rect
           id="rect5998"
           width="260"
           height="80"
           x="60"
           y="-102" /></flowRegion><flowPara
         id="flowPara6000"
         style="font-style:normal;font-variant:normal;font-weight:normal;font-stretch:normal;font-size:20px;line-height:125%;font-family:'Andale Mono';-inkscape-font-specification:'Andale Mono, Normal';text-align:start;writing-mode:lr-tb;text-anchor:start">Home</flowPara></flowRoot>    <flowRoot
       xml:space="preserve"
       id="flowRoot5994-4"
       style="font-style:normal;font-weight:normal;font-size:40px;line-height:125%;font-family:sans-serif;letter-spacing:0px;word-spacing:0px;fill:#000000;fill-opacity:1;stroke:none;stroke-width:1px;stroke-linecap:butt;stroke-linejoin:miter;stroke-opacity:1"
       transform="translate(79.387625,163.97132)"><flowRegion
         id="flowRegion5996-7"><rect
           id="rect5998-8"
           width="260"
           height="80"
           x="60"
           y="-102" /></flowRegion><flowPara
         id="flowPara6000-6"
         style="font-style:normal;font-variant:normal;font-weight:normal;font-stretch:normal;font-size:20px;line-height:125%;font-family:'Andale Mono';-inkscape-font-specification:'Andale Mono, Normal';text-align:start;writing-mode:lr-tb;text-anchor:start">Biografía</flowPara><flowPara
         style="font-style:normal;font-variant:normal;font-weight:normal;font-stretch:normal;font-size:20px;line-height:125%;font-family:'Andale Mono';-inkscape-font-specification:'Andale Mono, Normal';text-align:start;writing-mode:lr-tb;text-anchor:start"
         id="flowPara6050" /></flowRoot>    <flowRoot
       xml:space="preserve"
       id="flowRoot5994-4-1"
       style="font-style:normal;font-weight:normal;font-size:40px;line-height:125%;font-family:sans-serif;letter-spacing:0px;word-spacing:0px;fill:#000000;fill-opacity:1;stroke:none;stroke-width:1px;stroke-linecap:butt;stroke-linejoin:miter;stroke-opacity:1"
       transform="translate(261.94991,164.52686)"><flowRegion
         id="flowRegion5996-7-7"><rect
           id="rect5998-8-9"
           width="260"
           height="80"
           x="60"
           y="-102" /></flowRegion><flowPara
         style="font-style:normal;font-variant:normal;font-weight:normal;font-stretch:normal;font-size:20px;line-height:125%;font-family:'Andale Mono';-inkscape-font-specification:'Andale Mono, Normal';text-align:start;writing-mode:lr-tb;text-anchor:start"
         id="flowPara6050-0">Obra</flowPara><flowPara
         style="font-style:normal;font-variant:normal;font-weight:normal;font-stretch:normal;font-size:20px;line-height:125%;font-family:'Andale Mono';-inkscape-font-specification:'Andale Mono, Normal';text-align:start;writing-mode:lr-tb;text-anchor:start"
         id="flowPara6081" /></flowRoot>    <flowRoot
       xml:space="preserve"
       id="flowRoot5994-4-5"
       style="font-style:normal;font-weight:normal;font-size:40px;line-height:125%;font-family:sans-serif;letter-spacing:0px;word-spacing:0px;fill:#000000;fill-opacity:1;stroke:none;stroke-width:1px;stroke-linecap:butt;stroke-linejoin:miter;stroke-opacity:1"
       transform="translate(372.79502,163.32941)"><flowRegion
         id="flowRegion5996-7-9"><rect
           id="rect5998-8-5"
           width="260"
           height="80"
           x="60"
           y="-102" /></flowRegion><flowPara
         id="flowPara6000-6-6"
         style="font-style:normal;font-variant:normal;font-weight:normal;font-stretch:normal;font-size:20px;line-height:125%;font-family:'Andale Mono';-inkscape-font-specification:'Andale Mono, Normal';text-align:start;writing-mode:lr-tb;text-anchor:start">Referencias</flowPara><flowPara
         style="font-style:normal;font-variant:normal;font-weight:normal;font-stretch:normal;font-size:20px;line-height:125%;font-family:'Andale Mono';-inkscape-font-specification:'Andale Mono, Normal';text-align:start;writing-mode:lr-tb;text-anchor:start"
         id="flowPara6097" /><flowPara
         style="font-style:normal;font-variant:normal;font-weight:normal;font-stretch:normal;font-size:20px;line-height:125%;font-family:'Andale Mono';-inkscape-font-specification:'Andale Mono, Normal';text-align:start;writing-mode:lr-tb;text-anchor:start"
         id="flowPara6050-1" /></flowRoot>    <flowRoot
       xml:space="preserve"
       id="flowRoot5994-4-5-9"
       style="font-style:normal;font-weight:normal;font-size:40px;line-height:125%;font-family:sans-serif;letter-spacing:0px;word-spacing:0px;fill:#000000;fill-opacity:1;stroke:none;stroke-width:1px;stroke-linecap:butt;stroke-linejoin:miter;stroke-opacity:1"
       transform="translate(548.51987,164.42844)"><flowRegion
         id="flowRegion5996-7-9-0"><rect
           id="rect5998-8-5-4"
           width="260"
           height="80"
           x="60"
           y="-102" /></flowRegion><flowPara
         style="font-style:normal;font-variant:normal;font-weight:normal;font-stretch:normal;font-size:20px;line-height:125%;font-family:'Andale Mono';-inkscape-font-specification:'Andale Mono, Normal';text-align:start;writing-mode:lr-tb;text-anchor:start"
         id="flowPara6050-1-1">Compras</flowPara><flowPara
         style="font-style:normal;font-variant:normal;font-weight:normal;font-stretch:normal;font-size:20px;line-height:125%;font-family:'Andale Mono';-inkscape-font-specification:'Andale Mono, Normal';text-align:start;writing-mode:lr-tb;text-anchor:start"
         id="flowPara6134" /></flowRoot>    <flowRoot
       xml:space="preserve"
       id="flowRoot5994-4-5-9-0"
       style="font-style:normal;font-weight:normal;font-size:40px;line-height:125%;font-family:sans-serif;letter-spacing:0px;word-spacing:0px;fill:#000000;fill-opacity:1;stroke:none;stroke-width:1px;stroke-linecap:butt;stroke-linejoin:miter;stroke-opacity:1"
       transform="translate(694.10949,164.06968)"><flowRegion
         id="flowRegion5996-7-9-0-0"><rect
           id="rect5998-8-5-4-2"
           width="260"
           height="80"
           x="60"
           y="-102" /></flowRegion><flowPara
         style="font-style:normal;font-variant:normal;font-weight:normal;font-stretch:normal;font-size:20px;line-height:125%;font-family:'Andale Mono';-inkscape-font-specification:'Andale Mono, Normal';text-align:start;writing-mode:lr-tb;text-anchor:start"
         id="flowPara6134-6">Bitácora</flowPara></flowRoot>    <flowRoot
       xml:space="preserve"
       id="flowRoot5994-4-5-9-8"
       style="font-style:normal;font-weight:normal;font-size:40px;line-height:125%;font-family:sans-serif;letter-spacing:0px;word-spacing:0px;fill:#000000;fill-opacity:1;stroke:none;stroke-width:1px;stroke-linecap:butt;stroke-linejoin:miter;stroke-opacity:1"
       transform="translate(846.50087,162.74531)"><flowRegion
         id="flowRegion5996-7-9-0-6"><rect
           id="rect5998-8-5-4-8"
           width="260"
           height="80"
           x="60"
           y="-102" /></flowRegion><flowPara
         style="font-style:normal;font-variant:normal;font-weight:normal;font-stretch:normal;font-size:20px;line-height:125%;font-family:'Andale Mono';-inkscape-font-specification:'Andale Mono, Normal';text-align:start;writing-mode:lr-tb;text-anchor:start"
         id="flowPara6134-3">Contacto</flowPara></flowRoot>    <path
       style="fill:#000000;fill-rule:evenodd;stroke:#000000;stroke-width:0.55239904px;stroke-linecap:butt;stroke-linejoin:miter;stroke-opacity:1"
       d="m 255.60912,73.072264 11.04798,0 -5.52399,11.04798 z"
       id="path6183"
       inkscape:connector-curvature="0" />
    <path
       style="fill:#000000;fill-rule:evenodd;stroke:#000000;stroke-width:0.55239904px;stroke-linecap:butt;stroke-linejoin:miter;stroke-opacity:1"
       d="m 380.26812,72.478388 11.04798,0 -5.52399,11.04798 z"
       id="path6183-4"
       inkscape:connector-curvature="0" />
    <path
       style="fill:#000000;fill-rule:evenodd;stroke:#000000;stroke-width:0.55239904px;stroke-linecap:butt;stroke-linejoin:miter;stroke-opacity:1"
       d="m 571.02983,73.66609 11.04798,0 -5.52399,11.04798 z"
       id="path6183-7"
       inkscape:connector-curvature="0" />
    <path
       style="fill:#000000;fill-rule:evenodd;stroke:#000000;stroke-width:0.55239904px;stroke-linecap:butt;stroke-linejoin:miter;stroke-opacity:1"
       d="m 701.54257,71.934787 11.04798,0 -5.52399,11.04798 z"
       id="path6183-4-0"
       inkscape:connector-curvature="0" />
  </g>
  <g
     inkscape:groupmode="layer"
     id="layer2"
     inkscape:label="Contenido"
     style="display:inline">
    <g
       id="g6546"
       transform="matrix(0.55363402,0,0,0.55363402,-219.6293,652.41331)">
      <g
         id="g6507">
        <path
           d="M 90,15.001 C 90,7.119 82.884,0 75,0 L 15,0 C 7.116,0 0,7.119 0,15.001 L 0,74.999 C 0,82.881 7.116,90 15.001,90 L 45,90 45,56 34,56 34,41 45,41 45,35.156 C 45,25.077 52.568,16 61.875,16 L 74,16 74,31 61.875,31 C 60.548,31 59,32.611 59,35.024 l 0,5.976 15,0 0,15 -15,0 0,34 16,0 c 7.884,0 15,-7.119 15,-15.001 l 0,-59.998 z"
           id="Facebook__x28_alt_x29_"
           inkscape:connector-curvature="0" />
      </g>
      <g
         id="g6510" />
      <g
         id="g6512" />
      <g
         id="g6514" />
      <g
         id="g6516" />
      <g
         id="g6518" />
      <g
         id="g6520" />
      <g
         id="g6522" />
      <g
         id="g6524" />
      <g
         id="g6526" />
      <g
         id="g6528" />
      <g
         id="g6530" />
      <g
         id="g6532" />
      <g
         id="g6534" />
      <g
         id="g6536" />
      <g
         id="g6538" />
    </g>
    <g
       id="g6605"
       transform="matrix(0.53528543,0,0,0.53528543,-217.35428,712.35726)">
      <g
         id="g6566">
        <path
           d="m 67.261,67.496 -22.207,0 c -3.087,0 -5.712,-1.08 -7.869,-3.25 -2.167,-2.172 -3.238,-4.797 -3.238,-7.898 l 0,-7.904 31.643,0 c 2.854,0 5.312,-1.025 7.354,-3.062 2.041,-2.054 3.066,-4.509 3.066,-7.366 0,-2.867 -1.025,-5.319 -3.072,-7.366 -2.049,-2.042 -4.515,-3.066 -7.381,-3.066 l -31.611,0 0,-16.33 c 0,-3.09 -1.102,-5.735 -3.29,-7.939 C 28.478,1.107 25.842,0 22.782,0 19.636,0 16.957,1.091 14.778,3.25 12.591,5.416 11.5,8.084 11.5,11.264 l 0,45.089 c 0,9.274 3.278,17.197 9.837,23.773 C 27.901,86.715 35.814,90 45.066,90 l 22.203,0 c 3.082,0 5.729,-1.107 7.93,-3.314 2.203,-2.197 3.302,-4.849 3.302,-7.936 0,-3.088 -1.099,-5.734 -3.302,-7.941 -2.202,-2.202 -4.852,-3.313 -7.938,-3.313 z"
           id="Twitter"
           inkscape:connector-curvature="0" />
      </g>
      <g
         id="g6569" />
      <g
         id="g6571" />
      <g
         id="g6573" />
      <g
         id="g6575" />
      <g
         id="g6577" />
      <g
         id="g6579" />
      <g
         id="g6581" />
      <g
         id="g6583" />
      <g
         id="g6585" />
      <g
         id="g6587" />
      <g
         id="g6589" />
      <g
         id="g6591" />
      <g
         id="g6593" />
      <g
         id="g6595" />
      <g
         id="g6597" />
    </g>
    <g
       id="g6663"
       transform="matrix(0.81366912,0,0,0.81366912,-255.17293,794.2502)">
      <path
         id="path6625"
         d="m 47,39 c -2.671,0 -5.182,1.04 -7.071,2.929 -0.524,0.524 -0.975,1.1 -1.365,1.709 L 21.284,33.149 C 21.741,32.005 22,30.761 22,29.456 22,28.151 21.741,26.907 21.285,25.763 L 38.569,15.354 C 40.345,18.142 43.456,20 47,20 52.514,20 57,15.514 57,10 57,4.486 52.514,0 47,0 41.486,0 37,4.486 37,10 c 0,1.256 0.243,2.454 0.667,3.562 L 20.361,23.985 C 18.573,21.261 15.495,19.456 12,19.456 c -5.514,0 -10,4.486 -10,10 0,5.514 4.486,10 10,10 3.495,0 6.572,-1.805 8.36,-4.529 L 37.664,45.43 C 37.234,46.556 37,47.759 37,49 c 0,2.671 1.04,5.183 2.929,7.071 C 41.818,57.96 44.329,59 47,59 49.671,59 52.182,57.96 54.071,56.071 55.96,54.183 57,51.671 57,49 57,46.329 55.96,43.817 54.071,41.929 52.182,40.04 49.671,39 47,39 Z"
         inkscape:connector-curvature="0" />
      <g
         id="g6627" />
      <g
         id="g6629" />
      <g
         id="g6631" />
      <g
         id="g6633" />
      <g
         id="g6635" />
      <g
         id="g6637" />
      <g
         id="g6639" />
      <g
         id="g6641" />
      <g
         id="g6643" />
      <g
         id="g6645" />
      <g
         id="g6647" />
      <g
         id="g6649" />
      <g
         id="g6651" />
      <g
         id="g6653" />
      <g
         id="g6655" />
    </g>
    <g
       id="g6730"
       transform="matrix(0.16326143,0,0,0.16326143,-393.58482,854.69943)">
      <g
         id="g6682">
        <g
           id="g6684">
          <g
             id="g6686">
            <path
               id="path6688"
               d="M 149.996,0 C 67.157,0 0.001,67.161 0.001,149.997 0.001,232.833 67.157,300 149.996,300 232.835,300 299.999,232.837 299.999,149.997 299.999,67.157 232.835,0 149.996,0 Z m 75.367,123.302 -36.686,36.686 c -3.979,3.979 -9.269,6.17 -14.895,6.17 -5.625,0 -10.916,-2.192 -14.895,-6.168 l -1.437,-1.437 -3.906,3.906 1.434,1.434 c 8.214,8.214 8.214,21.579 0,29.793 l -36.681,36.686 c -3.979,3.979 -9.269,6.17 -14.898,6.17 -5.628,0 -10.919,-2.192 -14.9,-6.173 L 74.634,216.5 C 66.42,208.291 66.42,194.927 74.631,186.71 l 36.689,-36.684 c 3.979,-3.979 9.269,-6.17 14.898,-6.17 5.629,0 10.916,2.192 14.898,6.17 l 1.432,1.432 3.906,-3.906 -1.432,-1.432 c -8.214,-8.211 -8.214,-21.576 -0.005,-29.79 l 36.689,-36.686 c 3.981,-3.981 9.272,-6.173 14.898,-6.173 5.626,0 10.916,2.192 14.898,6.17 l 13.868,13.873 c 8.207,8.209 8.207,21.576 -0.007,29.788 z"
               inkscape:connector-curvature="0" />
            <path
               id="path6690"
               d="m 142.539,173.459 -7.093,7.093 -11.002,-10.999 7.093,-7.093 -1.432,-1.432 c -1.04,-1.037 -2.422,-1.611 -3.89,-1.611 -1.471,0 -2.853,0.573 -3.893,1.611 l -36.686,36.681 c -2.145,2.147 -2.145,5.638 0,7.783 l 13.87,13.873 c 2.083,2.083 5.708,2.08 7.786,0.003 l 36.681,-36.686 c 2.148,-2.147 2.148,-5.641 0,-7.789 l -1.434,-1.434 z"
               inkscape:connector-curvature="0" />
            <path
               id="path6692"
               d="m 200.493,90.643 c -1.04,-1.04 -2.425,-1.613 -3.896,-1.613 -1.471,0 -2.856,0.573 -3.896,1.616 l -36.686,36.684 c -2.142,2.147 -2.142,5.638 0.003,7.786 l 1.434,1.432 10.88,-10.883 11.002,11.002 -10.88,10.883 1.434,1.434 c 2.083,2.077 5.703,2.08 7.786,-0.003 L 214.358,112.3 c 2.145,-2.147 2.145,-5.638 0,-7.786 L 200.493,90.643 Z"
               inkscape:connector-curvature="0" />
          </g>
        </g>
      </g>
      <g
         id="g6694" />
      <g
         id="g6696" />
      <g
         id="g6698" />
      <g
         id="g6700" />
      <g
         id="g6702" />
      <g
         id="g6704" />
      <g
         id="g6706" />
      <g
         id="g6708" />
      <g
         id="g6710" />
      <g
         id="g6712" />
      <g
         id="g6714" />
      <g
         id="g6716" />
      <g
         id="g6718" />
      <g
         id="g6720" />
      <g
         id="g6722" />
    </g>
    <text
       xml:space="preserve"
       style="font-style:normal;font-weight:normal;font-size:40px;line-height:125%;font-family:sans-serif;letter-spacing:0px;word-spacing:0px;fill:#000000;fill-opacity:1;stroke:none;stroke-width:1px;stroke-linecap:butt;stroke-linejoin:miter;stroke-opacity:1"
       x="680"
       y="148"
       id="text6755"
       sodipodi:linespacing="125%"><tspan
         sodipodi:role="line"
         id="tspan6757"
         x="680"
         y="148" /></text>
    <flowRoot
       xml:space="preserve"
       id="flowRoot5956-3"
       style="font-style:normal;font-weight:normal;font-size:40px;line-height:125%;font-family:sans-serif;letter-spacing:0px;word-spacing:0px;display:inline;fill:#000000;fill-opacity:1;stroke:none;stroke-width:1px;stroke-linecap:butt;stroke-linejoin:miter;stroke-opacity:1"
       transform="translate(-264.16096,-344.00696)"
       inkscape:export-xdpi="300"
       inkscape:export-ydpi="300"><flowRegion
         id="flowRegion5958-0"><rect
           id="rect5960-0"
           width="598.94562"
           height="87.448112"
           x="310"
           y="438"
           style="fill:#000000" /></flowRegion><flowPara
         style="font-style:normal;font-variant:normal;font-weight:normal;font-stretch:normal;font-size:60px;line-height:125%;font-family:'Andale Mono';-inkscape-font-specification:'Andale Mono, Normal';text-align:start;writing-mode:lr-tb;text-anchor:start;fill:#000000"
         id="flowPara6262-1">Bitácora</flowPara><flowPara
         style="font-style:normal;font-variant:normal;font-weight:normal;font-stretch:normal;font-size:60px;line-height:125%;font-family:'Andale Mono';-inkscape-font-specification:'Andale Mono, Normal';text-align:start;writing-mode:lr-tb;text-anchor:start;fill:#000000"
         id="flowPara6835-5" /></flowRoot>    <flowRoot
       xml:space="preserve"
       id="flowRoot5956-3-6"
       style="font-style:normal;font-weight:normal;font-size:40px;line-height:125%;font-family:sans-serif;letter-spacing:0px;word-spacing:0px;display:inline;fill:#000000;fill-opacity:1;stroke:none;stroke-width:1px;stroke-linecap:butt;stroke-linejoin:miter;stroke-opacity:1"
       transform="translate(106.57092,-236.46838)"
       inkscape:export-xdpi="300"
       inkscape:export-ydpi="300"><flowRegion
         id="flowRegion5958-0-0"><rect
           id="rect5960-0-2"
           width="451.84207"
           height="511.97525"
           x="310"
           y="438"
           style="fill:#000000" /></flowRegion><flowPara
         style="font-style:normal;font-variant:normal;font-weight:normal;font-stretch:normal;font-size:17.5px;line-height:125%;font-family:'Andale Mono';-inkscape-font-specification:'Andale Mono, Normal';text-align:start;writing-mode:lr-tb;text-anchor:start;fill:#000000"
         id="flowPara6835-5-6">Lorem ipsum dolor sit amet, maiores ornare ac fermentum, imperdiet ut vivamus a, nam lectus at nunc. Quam euismod sem, semper ut potenti pellentesque quisque. In eget sapien sed, sit duis vestibulum ultricies, placerat morbi amet vel, nullam in in lorem vel. In molestie elit dui dictum, praesent nascetur pulvinar sed, in dolor pede in aliquam, risus nec error quis pharetra. Eros metus quam augue suspendisse, metus rutrum risus erat in.  In ultrices quo ut lectus, etiam vestibulum urna a est, pretium luctus euismod nisl, pellentesque turpis hac ridiculus massa. Venenatis a taciti dolor platea, curabitur lorem platea urna odio, convallis sit pellentesque lacus proin. Et ipsum velit diam nulla, fringilla vel tincidunt vitae, elit turpis tellus vivamus, dictum adipiscing convallis magna id. Viverra eu amet sit, dignissim tincidunt volutpat nulla tincidunt, feugiat est erat dui tempor, fusce tortor auctor vestibulum. Venenatis praesent risus orci, ante nam volutpat erat. Cursus non mollis interdum maecenas, consequat imperdiet penatibus enim, tristique luctus tellus eos accumsan, ridiculus erat laoreet nunc.</flowPara></flowRoot>    <flowRoot
       xml:space="preserve"
       id="flowRoot5956-3-6-9"
       style="font-style:normal;font-weight:normal;font-size:40px;line-height:125%;font-family:sans-serif;letter-spacing:0px;word-spacing:0px;display:inline;fill:#000000;fill-opacity:1;stroke:none;stroke-width:1px;stroke-linecap:butt;stroke-linejoin:miter;stroke-opacity:1"
       transform="translate(-120.09753,-238.49261)"
       inkscape:export-xdpi="300"
       inkscape:export-ydpi="300"><flowRegion
         id="flowRegion5958-0-0-0"><rect
           id="rect5960-0-2-3"
           width="451.84207"
           height="511.97525"
           x="310"
           y="438"
           style="fill:#000000" /></flowRegion><flowPara
         style="font-style:normal;font-variant:normal;font-weight:normal;font-stretch:normal;font-size:22.5px;line-height:125%;font-family:'Andale Mono';-inkscape-font-specification:'Andale Mono, Normal';text-align:start;writing-mode:lr-tb;text-anchor:start;fill:#000000"
         id="flowPara6835-5-6-3">Autor : Anónimo</flowPara><flowPara
         style="font-style:normal;font-variant:normal;font-weight:normal;font-stretch:normal;font-size:17.5px;line-height:125%;font-family:'Andale Mono';-inkscape-font-specification:'Andale Mono, Normal';text-align:start;writing-mode:lr;text-anchor:start;fill:#000000"
         id="flowPara4346">23/09/16 12:23 hrs</flowPara></flowRoot>  </g>
</svg>
