<?xml version="1.0" encoding="iso-8859-1"?>
<!-- Generator: Adobe Illustrator 19.0.0, SVG Export Plug-In . SVG Version: 6.00 Build 0)  -->
<svg xmlns="http://www.w3.org/2000/svg" xmlns:xlink="http://www.w3.org/1999/xlink" version="1.1" id="Layer_1" x="0px" y="0px" viewBox="0 0 512 512" style="enable-background:new 0 0 512 512;" xml:space="preserve" width="512px" height="512px">
<g>
	<g>
		<path d="M0,371.567l0.001,86.539C0,487.871,24.13,512,53.895,512h86.539L0,371.567z" fill="#FFFFFF"/>
	</g>
</g>
<g>
	<g>
		<path d="M458.105,0l-86.537,0.001L512,140.432V53.895C512,24.129,487.871,0,458.105,0z" fill="#FFFFFF"/>
	</g>
</g>
<g>
	<g>
		<path d="M317.344,2.94C153.572,23.811,23.811,153.57,2.939,317.343l191.72,191.718    c163.774-20.871,293.532-150.632,314.403-314.404L317.344,2.94z M365.565,222.654l-28.582,28.582l-23.82-23.82L284.582,256    l23.819,23.819l-28.582,28.582L256,284.582l-28.582,28.582l23.819,23.82l-28.582,28.582l-23.819-23.82l-33.346,33.346    l-28.582-28.582l33.346-33.346l-23.817-23.817l28.582-28.582l23.817,23.817L227.418,256l-23.817-23.819l28.582-28.582L256,227.418    l28.582-28.584l-23.817-23.817l28.582-28.582l23.817,23.817l33.346-33.345l28.582,28.582l-33.346,33.345L365.565,222.654z" fill="#FFFFFF"/>
	</g>
</g>
<g>
</g>
<g>
</g>
<g>
</g>
<g>
</g>
<g>
</g>
<g>
</g>
<g>
</g>
<g>
</g>
<g>
</g>
<g>
</g>
<g>
</g>
<g>
</g>
<g>
</g>
<g>
</g>
<g>
</g>
</svg>
