<?xml version="1.0" encoding="iso-8859-1"?>
<!-- Generator: Adobe Illustrator 17.1.0, SVG Export Plug-In . SVG Version: 6.00 Build 0)  -->
<!DOCTYPE svg PUBLIC "-//W3C//DTD SVG 1.1//EN" "http://www.w3.org/Graphics/SVG/1.1/DTD/svg11.dtd">
<svg xmlns="http://www.w3.org/2000/svg" xmlns:xlink="http://www.w3.org/1999/xlink" version="1.1" id="Capa_1" x="0px" y="0px" viewBox="0 0 198.525 198.525" style="enable-background:new 0 0 198.525 198.525;" xml:space="preserve" width="512px" height="512px">
<path d="M190.763,0h-183c-2.761,0-5,2.238-5,5v123.628c0,2.762,2.239,5,5,5h26.386c0.667,1.976,2.516,3.408,4.717,3.408h5.676  l17.861,57.961c0.662,2.148,2.64,3.528,4.777,3.528c0.487,0,0.983-0.071,1.474-0.223c2.639-0.813,4.119-3.611,3.306-6.251  l-3.447-11.186h12.053l1.526,13.231c0.294,2.549,2.456,4.427,4.961,4.427c0.191,0,0.385-0.011,0.579-0.033  c2.743-0.316,4.71-2.796,4.395-5.54l-1.394-12.085h17.263l-1.394,12.085c-0.316,2.744,1.651,5.224,4.395,5.54  c0.194,0.022,0.388,0.033,0.579,0.033c2.505,0,4.667-1.879,4.961-4.427l1.526-13.231h12.053l-3.447,11.186  c-0.813,2.64,0.667,5.438,3.306,6.251c0.491,0.151,0.987,0.223,1.474,0.223c2.137,0,4.115-1.38,4.777-3.528l17.861-57.961h5.676  c2.201,0,4.05-1.432,4.717-3.408h26.386c2.761,0,5-2.238,5-5V5C195.763,2.238,193.524,0,190.763,0z M53.917,51.872  c0-2.762,2.239-5,5-5h80.692c2.761,0,5,2.238,5,5v60.854h-10V56.872H63.917v55.854h-10V51.872z M43.866,122.726H154.66v4.311H43.866  V122.726z M111.578,148.919H86.947l-1.37-11.883h27.371L111.578,148.919z M75.51,137.036l1.37,11.883H58.667l-3.662-11.883H75.51z   M61.749,158.919h16.285l1.378,11.947H65.43L61.749,158.919z M88.1,158.919h22.324l-1.378,11.947H89.478L88.1,158.919z   M120.492,158.919h16.285l-3.682,11.947h-13.981L120.492,158.919z M139.858,148.919h-18.213l1.37-11.883h20.505L139.858,148.919z" fill="#FFFFFF"/>
<g>
</g>
<g>
</g>
<g>
</g>
<g>
</g>
<g>
</g>
<g>
</g>
<g>
</g>
<g>
</g>
<g>
</g>
<g>
</g>
<g>
</g>
<g>
</g>
<g>
</g>
<g>
</g>
<g>
</g>
</svg>
